<svg width="93" height="93" viewBox="0 0 93 93" fill="none" xmlns="http://www.w3.org/2000/svg">
<path d="M0.910156 76.1339H7.20591C7.20587 75.9471 7.2048 47.852 7.20591 49.5902H0.910156V76.1339ZM91.4088 67.1105C91.4049 67.1056 91.401 67.1008 91.3971 67.095C88.7859 63.2285 84.157 67.3974 65.29 72.5059C62.6879 73.6491 63.0812 72.9274 36.2838 73.1525C35.1889 73.1525 34.3013 72.2648 34.3013 71.1701C34.3013 70.0754 35.1889 69.1876 36.2838 69.1876H62.2418C66.8903 69.1876 67.205 62.1539 62.0911 61.8834H50.7288C46.2395 61.8834 42.2765 59.7602 39.752 56.5102C37.8577 54.0709 34.9983 52.6712 31.9076 52.6712C15.3426 52.6643 11.7698 52.6627 11.2462 52.6625C11.2605 52.6625 11.2766 52.6626 11.2925 52.6626C11.2558 52.6626 11.2195 52.6625 11.1708 52.6625V73.8127L38.513 87.7699C44.2559 90.7047 51.1838 90.9738 57.1291 88.4988C66.9007 84.4352 84.2061 76.9808 90.3401 72.7044C92.1444 71.4576 92.6284 68.9632 91.4262 67.1366C91.4204 67.1278 91.4136 67.1191 91.4088 67.1105ZM90.2697 2.81836C89.2626 2.81836 88.4461 3.63484 88.4461 4.64189V10.1169C88.4461 11.124 89.2626 11.9405 90.2697 11.9405C91.2767 11.9405 92.0932 11.124 92.0932 10.1169V4.64189C92.0932 3.63486 91.2767 2.81836 90.2697 2.81836ZM72.3371 9.9905C73.3442 9.9905 74.1606 9.17402 74.1606 8.16697V4.64189C74.1606 3.63484 73.3442 2.81836 72.3371 2.81836C71.3301 2.81836 70.5136 3.63484 70.5136 4.64189V8.16697C70.5136 9.17402 71.3301 9.9905 72.3371 9.9905ZM54.4054 34.382C55.4125 34.382 56.229 33.5655 56.229 32.5585V19.9994C56.229 18.9924 55.4125 18.1759 54.4054 18.1759C53.3984 18.1759 52.5819 18.9924 52.5819 19.9994V32.5585C52.5819 33.5655 53.3984 34.382 54.4054 34.382ZM90.2697 14.7452C89.2626 14.7452 88.4461 15.5617 88.4461 16.5687V32.5584C88.4461 33.5655 89.2626 34.382 90.2697 34.382C91.2767 34.382 92.0932 33.5655 92.0932 32.5584V16.5687C92.0932 15.5617 91.2767 14.7452 90.2697 14.7452ZM72.3371 26.9436C73.3442 26.9436 74.1606 26.1271 74.1606 25.1201V14.6188C74.1606 13.6117 73.3442 12.7953 72.3371 12.7953C71.3301 12.7953 70.5136 13.6117 70.5136 14.6188V25.1201C70.5136 26.1271 71.3301 26.9436 72.3371 26.9436ZM54.4054 15.372C55.4125 15.372 56.229 14.5556 56.229 13.5485V4.64189C56.229 3.63484 55.4125 2.81836 54.4054 2.81836C53.3984 2.81836 52.5819 3.63484 52.5819 4.64189V13.5485C52.5819 14.5556 53.3984 15.372 54.4054 15.372ZM28.5865 45.1627C38.6523 45.1627 46.8218 36.9932 46.8218 26.9274C46.8218 16.8797 38.6523 8.69208 28.5865 8.69208C18.5389 8.69208 10.3512 16.8797 10.3512 26.9274C10.3512 36.9932 18.5389 45.1627 28.5865 45.1627ZM22.9878 26.6854H25.1506C24.7768 24.9693 23.3962 21.9981 25.9279 19.9042C27.8073 18.3498 30.869 18.3742 33.149 19.3183C33.5996 19.4981 33.8249 19.7991 33.8249 20.2194C33.8249 20.8127 33.3259 21.365 32.4501 21.0759C30.8831 20.5704 28.4028 20.3466 27.2796 21.3911C26.0634 22.52 26.3956 23.8146 27.2689 26.6854H31.2561C31.5585 26.6854 31.7743 26.9013 31.7743 27.2036C31.7743 27.5107 31.5524 27.6987 31.2561 27.6987H27.4941C27.7445 28.962 27.5271 30.5601 26.6376 31.9565C27.7031 31.9689 27.4827 31.7857 29.5216 32.4071C30.7521 32.8477 31.777 33.0657 33.0582 32.6101C33.3725 32.5064 33.7088 32.4318 34.0724 32.7793C34.4524 33.1442 34.4933 33.8541 33.8248 34.2324C32.0299 35.22 30.5457 34.8369 29.2064 34.3446C27.5542 33.6984 26.0882 33.5254 24.5202 34.593C24.1438 34.8662 23.708 34.8153 23.4161 34.536C23.0293 34.1679 23.1227 33.5964 23.4838 33.2859C24.9796 31.8695 25.9204 29.7839 25.4213 27.6987H22.9878C22.6865 27.6987 22.4928 27.5052 22.4928 27.2036C22.4928 26.9105 22.679 26.6854 22.9878 26.6854Z" fill="black"/>
<path d="M53.6032 58.2386H62.2832C67.0267 58.4927 70.6296 62.9426 69.2309 67.5933C73.3521 66.3533 76.6344 65.2228 79.2238 64.3291C83.5638 62.8338 86.1897 61.9403 88.5421 61.9403C88.8156 61.9403 89.0891 61.9586 89.3445 61.9951C91.1315 58.968 92.0797 55.5216 92.0797 51.9657C92.0797 41.0791 83.2173 32.2168 72.3309 32.2168C61.4444 32.2168 52.582 41.0791 52.582 51.9657C52.582 54.1357 52.9285 56.2327 53.6032 58.2386ZM66.5503 44.8904C67.0443 44.4376 67.8567 44.4129 68.3373 45.2368L72.3309 52.2574L76.3427 45.2368C76.7768 44.4354 77.6219 44.4249 78.1297 44.8904C78.4957 45.2259 78.5411 45.8304 78.2573 46.2763L74.3732 52.6221H76.6344C77.0978 52.6221 77.4915 52.9593 77.4915 53.4974C77.4915 54.0097 77.1505 54.3545 76.6344 54.3545H73.3703V56.4697H76.6344C77.0978 56.4697 77.4915 56.8071 77.4915 57.3451C77.4915 57.8583 77.1494 58.2021 76.6344 58.2021H73.3703V60.1715C73.3703 60.8012 72.8825 61.211 72.3309 61.211C71.7492 61.211 71.2914 60.7562 71.2914 60.1715V58.2021H68.0274C67.4901 58.2021 67.1702 57.8282 67.1702 57.3451C67.1702 56.8756 67.5061 56.4697 68.0274 56.4697H71.2914V54.3545H68.0274C67.4896 54.3545 67.1702 53.9801 67.1702 53.4974C67.1702 53.0273 67.5067 52.6221 68.0274 52.6221H70.3068L66.4044 46.2763C66.1217 45.8321 66.1613 45.2469 66.5503 44.8904Z" fill="black"/>
</svg>
