<svg width="101" height="104" viewBox="0 0 101 104" fill="none" xmlns="http://www.w3.org/2000/svg">
<path d="M85.7299 29.1161C93.7701 29.1161 100.288 22.5983 100.288 14.5581C100.288 6.51787 93.7701 0 85.7299 0C77.6897 0 71.1719 6.51787 71.1719 14.5581C71.1719 22.5983 77.6897 29.1161 85.7299 29.1161Z" fill="black"/>
<path d="M85.7316 9.70463C86.1606 9.70463 86.572 9.87505 86.8754 10.1784C87.1787 10.4818 87.3492 10.8932 87.3492 11.3222H90.5843C90.5801 10.3221 90.2671 9.34774 89.688 8.53238C89.1089 7.71702 88.292 7.10048 87.3492 6.76713V3.23438H84.114V6.76713C83.0356 7.14697 82.1265 7.89621 81.5475 8.88215C80.9686 9.86809 80.7573 11.0271 80.9511 12.1539C81.1448 13.2807 81.7311 14.3026 82.6061 15.0385C83.4811 15.7745 84.5883 16.177 85.7316 16.1749C86.0515 16.1749 86.3643 16.2697 86.6303 16.4475C86.8963 16.6252 87.1036 16.8779 87.226 17.1734C87.3485 17.469 87.3805 17.7942 87.3181 18.108C87.2557 18.4218 87.1016 18.71 86.8754 18.9362C86.6492 19.1624 86.3609 19.3165 86.0472 19.3789C85.7334 19.4413 85.4082 19.4093 85.1126 19.2869C84.817 19.1644 84.5644 18.9571 84.3866 18.6911C84.2089 18.4251 84.114 18.1124 84.114 17.7924H80.8789C80.882 18.7926 81.1946 19.7672 81.7739 20.5825C82.3531 21.3979 83.1706 22.0138 84.114 22.3459V25.8802H87.3492V22.3459C88.4283 21.9669 89.3384 21.218 89.918 20.232C90.4976 19.2459 90.7093 18.0865 90.5154 16.9592C90.3216 15.832 89.7348 14.8099 88.8591 14.0741C87.9834 13.3383 86.8754 12.9364 85.7316 12.9398C85.3026 12.9398 84.8912 12.7693 84.5878 12.466C84.2845 12.1626 84.114 11.7512 84.114 11.3222C84.114 10.8932 84.2845 10.4818 84.5878 10.1784C84.8912 9.87505 85.3026 9.70463 85.7316 9.70463Z" fill="white"/>
<path d="M95.2081 67.938C93.4256 67.9385 91.6752 68.4118 90.1354 69.3097L81.6012 74.2886V48.3138L83.9385 49.8731C84.1822 50.0356 84.4653 50.129 84.7578 50.1432C85.0503 50.1574 85.3412 50.0919 85.5994 49.9538C85.8576 49.8156 86.0735 49.6099 86.224 49.3587C86.3744 49.1075 86.4539 48.8201 86.4539 48.5273V40.4395C86.4539 40.1732 86.3882 39.9111 86.2626 39.6763C86.1371 39.4416 85.9555 39.2414 85.734 39.0936L51.7652 16.4478C51.4994 16.2704 51.187 16.1758 50.8675 16.1758C50.5479 16.1758 50.2356 16.2704 49.9697 16.4478L34.6919 26.6336V22.6463C34.6919 22.2173 34.5214 21.8058 34.2181 21.5025C33.9147 21.1991 33.5033 21.0287 33.0743 21.0287H23.3689C22.9399 21.0287 22.5285 21.1991 22.2251 21.5025C21.9218 21.8058 21.7514 22.2173 21.7514 22.6463V35.2633L16.0025 39.0953C15.781 39.2427 15.5993 39.4425 15.4734 39.677C15.3476 39.9114 15.2815 40.1734 15.2811 40.4395V48.5273C15.2811 48.8201 15.3605 49.1075 15.511 49.3587C15.6615 49.6099 15.8774 49.8156 16.1356 49.9538C16.3938 50.0919 16.6846 50.1574 16.9772 50.1432C17.2697 50.129 17.5528 50.0356 17.7964 49.8731L20.1338 48.3138V68.6805C16.2601 71.463 13.1177 75.1421 10.9752 79.4033C9.83323 81.675 7.98982 83.5185 5.71808 84.6604L0 87.5186L1.4461 90.4141L7.16418 87.5542C10.062 86.0985 12.4133 83.7472 13.869 80.8494C16.0519 76.4837 19.4074 72.8121 23.5594 70.246C27.7114 67.6799 32.496 66.3206 37.377 66.3205H42.7797C42.9297 66.3207 43.0789 66.2995 43.2229 66.2574L52.2974 63.6693C53.645 63.2832 55.0398 63.0867 56.4416 63.0853C56.9916 63.0849 57.5266 63.2649 57.9645 63.5977C58.4025 63.9305 58.7191 64.3977 58.866 64.9278C59.0129 65.4578 58.9819 66.0214 58.7777 66.5321C58.5735 67.0429 58.2075 67.4725 57.7356 67.7552L54.968 69.4165C53.0507 70.5668 50.8566 71.174 48.6207 71.1731C45.5467 71.1705 42.5411 72.0802 39.9845 73.7871L38.6468 74.68C38.3743 74.8617 38.1633 75.1218 38.0418 75.426C37.9203 75.7302 37.894 76.0641 37.9664 76.3836C38.0389 76.703 38.2065 76.9929 38.4473 77.215C38.6881 77.4371 38.9906 77.5808 39.3149 77.6272L73.2837 82.4799C73.645 82.5318 74.0133 82.46 74.3286 82.2761L91.7659 72.1049C92.8111 71.4949 93.9995 71.1733 95.2097 71.1731C95.7643 71.1732 96.304 71.3528 96.748 71.6852C97.192 72.0176 97.5164 72.4848 97.6726 73.017C97.8289 73.5491 97.8086 74.1176 97.6148 74.6372C97.421 75.1569 97.0641 75.5998 96.5976 75.8997L76.4929 88.8256C74.7153 89.9678 72.6685 90.6221 70.5581 90.723L39.4669 92.2015C39.3194 92.2082 39.1735 92.2354 39.0334 92.2823L14.77 100.37L15.7923 103.444L39.8454 95.4253L70.7134 93.9565C72.8357 93.8583 74.9139 93.3155 76.8132 92.3632C77.3039 92.1193 77.7812 91.8493 78.2431 91.5544L98.3462 78.6301C99.3975 77.951 100.201 76.9501 100.637 75.7769C101.073 74.6036 101.117 73.3209 100.764 72.1201C100.412 70.9193 99.6798 69.8649 98.6784 69.1141C97.677 68.3633 96.4597 67.9564 95.2081 67.9542V67.938ZM24.9865 24.2638H31.4567V28.793L24.9865 33.107V24.2638ZM18.5162 41.3049L50.8675 19.7347L83.2187 41.3049V45.5105L51.7652 24.534C51.499 24.3578 51.1867 24.2639 50.8675 24.2639C50.5482 24.2639 50.236 24.3578 49.9697 24.534L18.5162 45.504V41.3049ZM58.9553 53.38H42.7797V50.1448H58.9553V53.38ZM51.4094 60.5555L44.3972 62.558V56.6151H57.3377V59.9408C57.0419 59.8868 56.7422 59.8565 56.4416 59.8502C54.7395 59.8497 53.0457 60.0871 51.4094 60.5555ZM48.6207 74.4083C51.4426 74.4083 54.2114 73.6412 56.6309 72.189L57.3377 71.7652V76.9414L44.5315 75.1038C45.8454 74.6422 47.2281 74.4071 48.6207 74.4083ZM73.1898 79.1979L60.5729 77.3959V69.5912C61.6101 68.5234 62.1903 67.0933 62.1903 65.6047C62.1903 64.116 61.6101 62.686 60.5729 61.6182V56.6151C61.0019 56.6151 61.4133 56.4447 61.7166 56.1413C62.02 55.838 62.1904 55.4265 62.1904 54.9975V48.5273C62.1904 48.0983 62.02 47.6868 61.7166 47.3835C61.4133 47.0801 61.0019 46.9097 60.5729 46.9097H41.1621C40.7331 46.9097 40.3217 47.0801 40.0183 47.3835C39.715 47.6868 39.5445 48.0983 39.5445 48.5273V54.9975C39.5445 55.4265 39.715 55.838 40.0183 56.1413C40.3217 56.4447 40.7331 56.6151 41.1621 56.6151V63.0853H37.377C33.2465 63.0796 29.1613 63.9466 25.3893 65.6298C24.7002 65.9355 24.0305 66.2768 23.3689 66.6343V46.1575L50.8675 27.8225L78.366 46.1575V76.1763L73.1898 79.1979Z" fill="black"/>
</svg>
